<svg width="152" height="152" viewBox="0 0 152 152" fill="none" xmlns="http://www.w3.org/2000/svg">
<g clip-path="url(#clip0_25_22)">
<path d="M40.5918 17.8438C53.492 8.44435 69.3253 3.96173 85.2383 5.20312C101.152 6.44457 116.098 13.3287 127.385 24.6152C138.671 35.9018 145.555 50.8485 146.797 66.7617C148.038 82.6747 143.556 98.508 134.156 111.408C124.757 124.308 111.058 133.428 95.5303 137.122C80.0021 140.816 63.6648 138.843 49.4629 131.558C48.3343 130.979 47.0307 130.852 45.8164 131.196L45.5752 131.271L7.98633 144.013L20.7285 106.425C21.1356 105.224 21.0702 103.916 20.5518 102.766L20.4424 102.537C13.1571 88.3352 11.1837 71.9979 14.8779 56.4697C18.5723 40.9417 27.6916 27.2433 40.5918 17.8438Z" stroke="black" stroke-width="10" stroke-linecap="round" stroke-linejoin="round"/>
</g>
<defs>
<clipPath id="clip0_25_22">
<rect width="152" height="152" fill="white"/>
</clipPath>
</defs>
</svg>
